<?xml version="1.0" encoding="UTF-8"?>
<svg id="Capa_1" data-name="Capa 1" xmlns="http://www.w3.org/2000/svg" xmlns:xlink="http://www.w3.org/1999/xlink" viewBox="0 0 657.47 147.11">
  <defs>
    <style>
      .cls-1 {
        fill: #282828;
      }

      .cls-1, .cls-2, .cls-3, .cls-4 {
        stroke-width: 0px;
      }

      .cls-2 {
        fill: url(#Degradado_sin_nombre_266);
      }

      .cls-3 {
        fill: none;
      }

      .cls-4 {
        fill: #01dc66;
      }
    </style>
    <linearGradient id="Degradado_sin_nombre_266" data-name="Degradado sin nombre 266" x1="89.36" y1="53.32" x2="80.86" y2="88.73" gradientUnits="userSpaceOnUse">
      <stop offset="0" stop-color="#01dc66"/>
      <stop offset="1" stop-color="#ffcd1e"/>
    </linearGradient>
  </defs>
  <rect class="cls-3" x="0" width="657.47" height="147.11"/>
  <path class="cls-1" d="M123.83,86.54h14.88l-2.09,11.68h-30.32l8.69-49.23h15.44l-6.61,37.55Z"/>
  <path class="cls-1" d="M150.33,98.91c-2.67-1.02-4.75-2.44-6.26-4.28-1.51-1.83-2.26-3.93-2.26-6.29,0-.88.05-1.53.14-1.95h14.81c-.05,1.16.29,2.02,1.01,2.57.72.56,1.7.83,2.95.83.79,0,1.47-.18,2.05-.56.58-.37.87-.81.87-1.32,0-.74-.46-1.33-1.39-1.77-.93-.44-2.46-.94-4.59-1.5-2.69-.74-4.93-1.51-6.71-2.29-1.78-.79-3.34-1.96-4.66-3.51-1.32-1.55-1.98-3.58-1.98-6.08,0-2.32.71-4.44,2.12-6.36,1.41-1.92,3.41-3.43,5.98-4.52,2.57-1.09,5.55-1.63,8.94-1.63,3.71,0,6.89.63,9.56,1.88,2.66,1.25,4.67,2.94,6.01,5.08,1.34,2.13,1.97,4.5,1.88,7.09h-13.7c0-1.07-.33-1.89-.97-2.47-.65-.58-1.6-.87-2.85-.87-.79,0-1.45.16-1.98.49-.53.32-.8.76-.8,1.32,0,.69.46,1.26,1.39,1.7.93.44,2.5,1.01,4.73,1.7,2.73.79,4.99,1.56,6.78,2.33,1.78.76,3.35,1.9,4.69,3.41,1.34,1.51,2.02,3.42,2.02,5.74,0,4.03-1.73,7.17-5.18,9.42-3.45,2.25-7.94,3.37-13.46,3.37-3.43,0-6.48-.51-9.14-1.53Z"/>
  <path class="cls-1" d="M199.77,84.68c-.05.19-.07.42-.07.7,0,1.3.83,1.95,2.5,1.95h3.69l-2.36,13.14h-5.84c-9.13,0-13.7-3.87-13.7-11.61,0-1.39.14-2.87.42-4.45l1.81-10.29h-4.87l2.29-12.86h4.87l1.67-9.46h15.44l-1.67,9.46h6.4l-2.29,12.86h-6.4l-1.88,10.57Z"/>
  <g>
    <path class="cls-1" d="M246.42,99.04c-3.71,0-6.9-.77-9.59-2.32-2.69-1.55-4.75-3.75-6.2-6.59-1.44-2.85-2.17-6.21-2.17-10.07s.73-7.14,2.18-10.02c1.45-2.88,3.49-5.13,6.1-6.74,2.61-1.61,5.69-2.42,9.22-2.42,2.28,0,4.43.36,6.46,1.09,2.03.73,3.83,1.86,5.39,3.38,1.56,1.52,2.8,3.46,3.69,5.81.9,2.35,1.35,5.15,1.35,8.39v2.67h-30.3v-5.87h21.95c-.02-1.67-.38-3.16-1.08-4.46-.71-1.31-1.69-2.34-2.95-3.09-1.26-.75-2.72-1.13-4.39-1.13-1.78,0-3.35.43-4.69,1.29-1.35.86-2.39,1.98-3.14,3.37-.75,1.39-1.13,2.91-1.14,4.56v5.13c0,2.15.39,3.99,1.18,5.52.79,1.53,1.89,2.7,3.3,3.51,1.41.81,3.06,1.22,4.96,1.22,1.27,0,2.41-.18,3.44-.54,1.03-.36,1.92-.89,2.67-1.6.75-.71,1.32-1.58,1.71-2.62l8.13.91c-.51,2.15-1.49,4.02-2.92,5.62-1.44,1.6-3.27,2.83-5.5,3.71-2.23.87-4.78,1.31-7.65,1.31Z"/>
    <path class="cls-1" d="M278.94,49.03v49.29h-8.71v-49.29h8.71Z"/>
    <path class="cls-1" d="M304.25,99.04c-3.71,0-6.9-.77-9.59-2.32-2.69-1.55-4.75-3.75-6.2-6.59-1.44-2.85-2.17-6.21-2.17-10.07s.73-7.14,2.18-10.02c1.45-2.88,3.49-5.13,6.1-6.74,2.61-1.61,5.69-2.42,9.22-2.42,2.28,0,4.43.36,6.46,1.09,2.03.73,3.83,1.86,5.39,3.38,1.56,1.52,2.8,3.46,3.69,5.81.9,2.35,1.35,5.15,1.35,8.39v2.67h-30.3v-5.87h21.95c-.02-1.67-.38-3.16-1.08-4.46-.71-1.31-1.69-2.34-2.95-3.09-1.26-.75-2.72-1.13-4.39-1.13-1.78,0-3.35.43-4.69,1.29-1.35.86-2.39,1.98-3.14,3.37-.75,1.39-1.13,2.91-1.14,4.56v5.13c0,2.15.39,3.99,1.18,5.52.79,1.53,1.89,2.7,3.3,3.51,1.41.81,3.06,1.22,4.96,1.22,1.27,0,2.41-.18,3.44-.54,1.03-.36,1.92-.89,2.67-1.6.75-.71,1.32-1.58,1.71-2.62l8.13.91c-.51,2.15-1.49,4.02-2.92,5.62-1.44,1.6-3.27,2.83-5.5,3.71-2.23.87-4.78,1.31-7.65,1.31Z"/>
    <path class="cls-1" d="M344.18,99.04c-3.69,0-6.85-.81-9.49-2.43-2.64-1.62-4.67-3.86-6.09-6.73s-2.13-6.16-2.13-9.9.72-7.07,2.17-9.95c1.44-2.88,3.49-5.13,6.13-6.74,2.64-1.61,5.76-2.42,9.37-2.42,3,0,5.66.55,7.98,1.65,2.32,1.1,4.17,2.65,5.55,4.64,1.38,2,2.17,4.33,2.36,6.99h-8.33c-.34-1.78-1.13-3.27-2.39-4.46s-2.94-1.79-5.04-1.79c-1.78,0-3.35.48-4.69,1.43-1.35.95-2.4,2.32-3.14,4.1-.75,1.78-1.12,3.91-1.12,6.4s.37,4.68,1.11,6.49,1.78,3.19,3.12,4.16c1.34.97,2.91,1.46,4.73,1.46,1.28,0,2.44-.24,3.45-.73,1.02-.49,1.87-1.2,2.56-2.13.69-.93,1.16-2.06,1.42-3.39h8.33c-.21,2.62-.98,4.93-2.31,6.94-1.33,2.01-3.14,3.59-5.44,4.72-2.29,1.13-4.99,1.7-8.09,1.7Z"/>
    <path class="cls-1" d="M385.65,61.35v6.74h-21.25v-6.74h21.25ZM369.64,52.49h8.71v34.7c0,1.17.18,2.07.54,2.68.36.62.84,1.04,1.43,1.26s1.25.34,1.97.34c.55,0,1.05-.04,1.5-.12.46-.08.81-.15,1.05-.22l1.47,6.81c-.47.16-1.13.34-1.99.53-.86.19-1.9.3-3.14.34-2.18.06-4.15-.27-5.9-1s-3.13-1.87-4.15-3.41-1.52-3.47-1.5-5.78v-36.15Z"/>
    <path class="cls-1" d="M392.94,98.31v-36.97h8.45v6.16h.38c.67-2.13,1.83-3.78,3.48-4.95,1.64-1.16,3.53-1.74,5.64-1.74.48,0,1.02.02,1.62.06.6.04,1.1.1,1.5.18v8.01c-.37-.13-.95-.24-1.74-.35s-1.56-.16-2.3-.16c-1.59,0-3.01.34-4.27,1.02-1.26.68-2.25,1.62-2.97,2.83s-1.08,2.59-1.08,4.16v21.73h-8.71Z"/>
    <path class="cls-1" d="M424.2,56.1c-1.38,0-2.57-.47-3.56-1.4-.99-.93-1.49-2.05-1.49-3.35s.5-2.41,1.49-3.33,2.18-1.38,3.56-1.38,2.59.47,3.57,1.4c.99.93,1.48,2.05,1.48,3.35s-.49,2.41-1.48,3.33c-.99.92-2.18,1.38-3.57,1.38ZM419.82,98.31v-36.97h8.71v36.97h-8.71Z"/>
    <path class="cls-1" d="M453.61,99.04c-3.69,0-6.86-.81-9.49-2.43-2.64-1.62-4.67-3.86-6.09-6.73s-2.13-6.16-2.13-9.9.72-7.07,2.17-9.95c1.44-2.88,3.49-5.13,6.12-6.74,2.64-1.61,5.76-2.42,9.37-2.42,3,0,5.66.55,7.98,1.65,2.32,1.1,4.17,2.65,5.55,4.64,1.38,2,2.17,4.33,2.36,6.99h-8.33c-.34-1.78-1.13-3.27-2.39-4.46s-2.94-1.79-5.04-1.79c-1.78,0-3.35.48-4.69,1.43-1.35.95-2.39,2.32-3.14,4.1s-1.12,3.91-1.12,6.4.37,4.68,1.11,6.49c.74,1.8,1.78,3.19,3.12,4.16,1.34.97,2.92,1.46,4.73,1.46,1.28,0,2.43-.24,3.45-.73,1.02-.49,1.87-1.2,2.56-2.13.69-.93,1.16-2.06,1.42-3.39h8.33c-.21,2.62-.98,4.93-2.31,6.94-1.33,2.01-3.14,3.59-5.44,4.72-2.29,1.13-4.99,1.7-8.09,1.7Z"/>
    <path class="cls-1" d="M480.99,56.1c-1.38,0-2.57-.47-3.56-1.4-.99-.93-1.49-2.05-1.49-3.35s.5-2.41,1.49-3.33,2.18-1.38,3.56-1.38,2.59.47,3.57,1.4c.99.93,1.48,2.05,1.48,3.35s-.49,2.41-1.48,3.33c-.99.92-2.18,1.38-3.57,1.38ZM476.61,98.31v-36.97h8.71v36.97h-8.71Z"/>
    <path class="cls-1" d="M508,98.96c-2.9,0-5.5-.75-7.8-2.24-2.29-1.49-4.11-3.66-5.44-6.5-1.33-2.84-2-6.29-2-10.35s.68-7.58,2.03-10.41,3.19-4.97,5.5-6.43c2.31-1.45,4.89-2.18,7.73-2.18,2.17,0,3.95.36,5.34,1.09,1.4.73,2.5,1.6,3.32,2.62.82,1.02,1.45,1.98,1.9,2.88h.36v-18.43h8.74v49.29h-8.57v-5.82h-.53c-.45.9-1.1,1.85-1.95,2.85-.85,1-1.97,1.86-3.37,2.56-1.4.71-3.15,1.06-5.27,1.06ZM510.43,91.82c1.85,0,3.42-.5,4.72-1.5,1.3-1,2.29-2.4,2.96-4.2.67-1.8,1.01-3.89,1.01-6.28s-.33-4.47-1-6.23c-.67-1.76-1.64-3.14-2.94-4.12-1.29-.98-2.88-1.47-4.75-1.47s-3.56.51-4.86,1.52c-1.3,1.01-2.28,2.41-2.94,4.19-.66,1.78-.99,3.82-.99,6.11s.33,4.37,1,6.17,1.65,3.22,2.96,4.26c1.31,1.04,2.92,1.55,4.83,1.55Z"/>
    <path class="cls-1" d="M547.63,99.06c-2.34,0-4.45-.42-6.32-1.26-1.87-.84-3.35-2.09-4.43-3.74s-1.62-3.69-1.62-6.11c0-2.09.39-3.81,1.16-5.17.77-1.36,1.82-2.45,3.15-3.27,1.33-.82,2.84-1.44,4.51-1.87,1.68-.42,3.41-.73,5.21-.93,2.17-.22,3.92-.43,5.27-.61s2.33-.47,2.95-.87c.62-.39.93-1.01.93-1.84v-.14c0-1.81-.54-3.22-1.61-4.21-1.08-.99-2.62-1.49-4.65-1.49-2.13,0-3.82.47-5.07,1.4-1.24.93-2.08,2.03-2.51,3.3l-8.13-1.16c.64-2.25,1.7-4.13,3.18-5.64,1.48-1.52,3.28-2.66,5.42-3.42,2.13-.76,4.49-1.14,7.08-1.14,1.78,0,3.55.21,5.32.63,1.77.42,3.38,1.1,4.84,2.06,1.46.95,2.63,2.25,3.53,3.89s1.34,3.68,1.34,6.14v24.74h-8.38v-5.08h-.29c-.53,1.03-1.27,1.99-2.23,2.88s-2.15,1.6-3.59,2.14c-1.44.54-3.12.81-5.04.81ZM549.9,92.66c1.75,0,3.27-.35,4.55-1.05,1.28-.7,2.27-1.62,2.97-2.78s1.05-2.41,1.05-3.78v-4.36c-.27.22-.73.43-1.38.63-.65.19-1.38.36-2.18.51-.8.14-1.6.27-2.38.38-.79.11-1.47.21-2.04.29-1.3.18-2.46.47-3.49.87s-1.84.96-2.43,1.67c-.59.71-.89,1.63-.89,2.76,0,1.6.58,2.82,1.76,3.63,1.17.82,2.66,1.23,4.48,1.23Z"/>
    <path class="cls-1" d="M589.65,98.96c-2.9,0-5.5-.75-7.8-2.24s-4.11-3.66-5.44-6.5c-1.33-2.84-2-6.29-2-10.35s.68-7.58,2.03-10.41,3.19-4.97,5.5-6.43c2.31-1.45,4.89-2.18,7.73-2.18,2.17,0,3.95.36,5.34,1.09,1.4.73,2.5,1.6,3.32,2.62.82,1.02,1.45,1.98,1.9,2.88h.36v-18.43h8.74v49.29h-8.57v-5.82h-.53c-.45.9-1.1,1.85-1.95,2.85-.85,1-1.97,1.86-3.37,2.56-1.4.71-3.15,1.06-5.27,1.06ZM592.08,91.82c1.85,0,3.42-.5,4.72-1.5,1.3-1,2.29-2.4,2.96-4.2.67-1.8,1.01-3.89,1.01-6.28s-.33-4.47-1-6.23c-.67-1.76-1.64-3.14-2.94-4.12-1.29-.98-2.88-1.47-4.75-1.47s-3.56.51-4.86,1.52c-1.3,1.01-2.28,2.41-2.94,4.19-.66,1.78-.99,3.82-.99,6.11s.33,4.37,1,6.17,1.65,3.22,2.96,4.26c1.31,1.04,2.92,1.55,4.83,1.55Z"/>
  </g>
  <path class="cls-2" d="M106.31,48.99h-27.78l-6.19,9.01c3.44,6.24,5.48,13.37,5.71,20.98.22,7.6-1.39,14.83-4.45,21.25-3.15,6.62-16.21,32.22-16.21,32.22l39.59-57.32h-8.73l18.07-26.15Z"/>
  <path class="cls-4" d="M73.29,79.04c-.43-14.77-8.5-27.53-20.3-34.6-2.72,5.75-4.15,12.22-3.95,19.02.43,14.77,8.5,27.53,20.3,34.6,2.72-5.75,4.15-12.22,3.95-19.02Z"/>
</svg>